<svg height="512pt" viewBox="-44 0 512 512.00024" width="512pt" xmlns="http://www.w3.org/2000/svg"><path d="m388.414062 0h-370.757812c-4.683594-.0234375-9.175781 1.855469-12.449219 5.207031-3.351562 3.273438-5.2304685 7.765625-5.207031 12.449219v476.6875c.03125 9.738281 7.917969 17.628906 17.65625 17.65625h335.449219c9.738281-.027344 17.625-7.917969 17.652343-17.65625v-423.722656h44.140626c4.875 0 8.824218-3.953125 8.824218-8.828125v-26.480469c0-19.503906-15.808594-35.3125-35.308594-35.3125zm0 0" fill="#d1d4d1"/><path d="m423.722656 35.3125v26.480469c0 4.875-3.949218 8.828125-8.824218 8.828125h-353.105469c-4.875 0-8.828125-3.953125-8.828125-8.828125v-26.480469c0-19.503906-15.808594-35.3125-35.308594-35.3125h370.757812c19.5 0 35.308594 15.808594 35.308594 35.3125zm0 0" fill="#e6e7e8"/><path d="m370.757812 70.621094v423.722656c-.027343 9.738281-7.914062 17.628906-17.652343 17.65625h-335.449219c-9.738281-.027344-17.625-7.917969-17.65625-17.65625v-476.6875c-.0234375-4.683594 1.855469-9.175781 5.207031-12.449219 3.273438-3.351562 7.765625-5.2304685 12.449219-5.207031 19.5 0 35.308594 15.808594 35.308594 35.3125v26.480469c0 4.875 3.953125 8.828125 8.828125 8.828125zm0 0" fill="#d1d4d1"/><path d="m114.757812 211.863281h-52.964843c-9.75 0-17.65625-7.90625-17.65625-17.65625v-52.964843c0-9.75 7.90625-17.65625 17.65625-17.65625h26.484375c4.875 0 8.828125 3.953124 8.828125 8.828124s-3.953125 8.828126-8.828125 8.828126h-26.484375v52.964843h52.964843v-8.828125c0-4.875 3.953126-8.828125 8.828126-8.828125s8.828124 3.953125 8.828124 8.828125v8.828125c0 9.75-7.90625 17.65625-17.65625 17.65625zm0 0" fill="#a5a5a4"/><path d="m114.757812 335.449219h-52.964843c-9.75 0-17.65625-7.90625-17.65625-17.65625v-52.964844c0-9.75 7.90625-17.65625 17.65625-17.65625h52.964843c9.75 0 17.65625 7.90625 17.65625 17.65625v52.964844c0 9.75-7.90625 17.65625-17.65625 17.65625zm-52.964843-70.621094v52.964844h52.964843v-52.964844zm0 0" fill="#a5a5a4"/><path d="m114.757812 459.035156h-52.964843c-9.75 0-17.65625-7.90625-17.65625-17.65625v-52.964844c0-9.75 7.90625-17.65625 17.65625-17.65625h52.964843c9.75 0 17.65625 7.90625 17.65625 17.65625v52.964844c0 9.75-7.90625 17.65625-17.65625 17.65625zm-52.964843-70.621094v52.964844h52.964843v-52.964844zm0 0" fill="#a5a5a4"/><g fill="#5e5f62"><path d="m211.863281 158.898438h-44.140625c-4.875 0-8.824218-3.953126-8.824218-8.828126s3.949218-8.828124 8.824218-8.828124h44.140625c4.875 0 8.828125 3.953124 8.828125 8.828124s-3.953125 8.828126-8.828125 8.828126zm0 0"/><path d="m335.449219 158.898438h-88.277344c-4.875 0-8.828125-3.953126-8.828125-8.828126s3.953125-8.828124 8.828125-8.828124h88.277344c4.875 0 8.828125 3.953124 8.828125 8.828124s-3.953125 8.828126-8.828125 8.828126zm0 0"/><path d="m256 194.207031h-88.277344c-4.875 0-8.824218-3.953125-8.824218-8.828125s3.949218-8.828125 8.824218-8.828125h88.277344c4.875 0 8.828125 3.953125 8.828125 8.828125s-3.953125 8.828125-8.828125 8.828125zm0 0"/><path d="m335.449219 194.207031h-44.136719c-4.878906 0-8.828125-3.953125-8.828125-8.828125s3.949219-8.828125 8.828125-8.828125h44.136719c4.875 0 8.828125 3.953125 8.828125 8.828125s-3.953125 8.828125-8.828125 8.828125zm0 0"/><path d="m211.863281 282.484375h-44.140625c-4.875 0-8.824218-3.953125-8.824218-8.828125s3.949218-8.828125 8.824218-8.828125h44.140625c4.875 0 8.828125 3.953125 8.828125 8.828125s-3.953125 8.828125-8.828125 8.828125zm0 0"/><path d="m335.449219 282.484375h-88.277344c-4.875 0-8.828125-3.953125-8.828125-8.828125s3.953125-8.828125 8.828125-8.828125h88.277344c4.875 0 8.828125 3.953125 8.828125 8.828125s-3.953125 8.828125-8.828125 8.828125zm0 0"/><path d="m256 317.792969h-88.277344c-4.875 0-8.824218-3.953125-8.824218-8.828125s3.949218-8.828125 8.824218-8.828125h88.277344c4.875 0 8.828125 3.953125 8.828125 8.828125s-3.953125 8.828125-8.828125 8.828125zm0 0"/><path d="m335.449219 317.792969h-44.136719c-4.878906 0-8.828125-3.953125-8.828125-8.828125s3.949219-8.828125 8.828125-8.828125h44.136719c4.875 0 8.828125 3.953125 8.828125 8.828125s-3.953125 8.828125-8.828125 8.828125zm0 0"/><path d="m211.863281 406.070312h-44.140625c-4.875 0-8.824218-3.953124-8.824218-8.828124s3.949218-8.828126 8.824218-8.828126h44.140625c4.875 0 8.828125 3.953126 8.828125 8.828126s-3.953125 8.828124-8.828125 8.828124zm0 0"/><path d="m335.449219 406.070312h-88.277344c-4.875 0-8.828125-3.953124-8.828125-8.828124s3.953125-8.828126 8.828125-8.828126h88.277344c4.875 0 8.828125 3.953126 8.828125 8.828126s-3.953125 8.828124-8.828125 8.828124zm0 0"/><path d="m256 441.378906h-88.277344c-4.875 0-8.824218-3.953125-8.824218-8.828125s3.949218-8.828125 8.824218-8.828125h88.277344c4.875 0 8.828125 3.953125 8.828125 8.828125s-3.953125 8.828125-8.828125 8.828125zm0 0"/><path d="m335.449219 441.378906h-44.136719c-4.878906 0-8.828125-3.953125-8.828125-8.828125s3.949219-8.828125 8.828125-8.828125h44.136719c4.875 0 8.828125 3.953125 8.828125 8.828125s-3.953125 8.828125-8.828125 8.828125zm0 0"/></g><path d="m97.105469 185.378906c-2.34375 0-4.585938-.929687-6.242188-2.585937l-17.65625-17.65625c-3.34375-3.460938-3.296875-8.96875.109375-12.375 3.402344-3.402344 8.910156-3.453125 12.375-.105469l10.292969 10.285156 38.070313-53.3125c1.832031-2.566406 4.898437-3.960937 8.035156-3.65625 3.140625.300782 5.878906 2.257813 7.1875 5.128906 1.304687 2.871094.980468 6.21875-.851563 8.785157l-44.136719 61.792969c-1.507812 2.113281-3.867187 3.457031-6.453124 3.671874zm0 0" fill="#24ae5f"/></svg>