<?xml version="1.0" encoding="UTF-8" standalone="no"?>
<!-- Created with Inkscape (http://www.inkscape.org/) -->

<svg
   xmlns:dc="http://purl.org/dc/elements/1.1/"
   xmlns:cc="http://creativecommons.org/ns#"
   xmlns:rdf="http://www.w3.org/1999/02/22-rdf-syntax-ns#"
   xmlns:svg="http://www.w3.org/2000/svg"
   xmlns="http://www.w3.org/2000/svg"
   xmlns:sodipodi="http://sodipodi.sourceforge.net/DTD/sodipodi-0.dtd"
   xmlns:inkscape="http://www.inkscape.org/namespaces/inkscape"
   width="11.492801mm"
   height="11.209509mm"
   viewBox="0 0 11.492801 11.209509"
   version="1.1"
   id="svg1110"
   inkscape:version="0.92.4 (5da689c313, 2019-01-14)"
   sodipodi:docname="github-logo.svg">
  <defs
     id="defs1104" />
  <sodipodi:namedview
     id="base"
     pagecolor="#ffffff"
     bordercolor="#666666"
     borderopacity="1.0"
     inkscape:pageopacity="0.0"
     inkscape:pageshadow="2"
     inkscape:zoom="2.8"
     inkscape:cx="-58.953259"
     inkscape:cy="-18.159933"
     inkscape:document-units="mm"
     inkscape:current-layer="layer1"
     showgrid="false"
     inkscape:window-width="1600"
     inkscape:window-height="849"
     inkscape:window-x="0"
     inkscape:window-y="25"
     inkscape:window-maximized="1" />
  <metadata
     id="metadata1107">
    <rdf:RDF>
      <cc:Work
         rdf:about="">
        <dc:format>image/svg+xml</dc:format>
        <dc:type
           rdf:resource="http://purl.org/dc/dcmitype/StillImage" />
        <dc:title></dc:title>
      </cc:Work>
    </rdf:RDF>
  </metadata>
  <g
     inkscape:label="Layer 1"
     inkscape:groupmode="layer"
     id="layer1"
     transform="translate(44.300004,-140.20477)">
    <path
       inkscape:connector-curvature="0"
       id="path11"
       d="m -38.553586,140.20477 c -3.173621,0 -5.746418,2.57279 -5.746418,5.74641 0,2.53835 1.646756,4.69223 3.930166,5.4529 0.286632,0.0524 0.392741,-0.1254 0.392741,-0.27698 0,-0.13643 -0.0055,-0.49747 -0.0083,-0.97703 -1.598519,0.34726 -1.936138,-0.77033 -1.936138,-0.77033 -0.260449,-0.66421 -0.638031,-0.8406 -0.638031,-0.8406 -0.522277,-0.35691 0.03996,-0.35002 0.03996,-0.35002 0.576019,0.0413 0.879186,0.59256 0.879186,0.59256 0.512632,0.87781 1.346344,0.62425 1.672939,0.47817 0.05237,-0.37207 0.201193,-0.62562 0.365182,-0.76894 -1.276065,-0.1447 -2.618275,-0.63803 -2.618275,-2.84014 0,-0.62701 0.224621,-1.13963 0.592557,-1.54202 -0.05926,-0.14607 -0.256314,-0.72898 0.05512,-1.52136 0,0 0.48369,-0.15434 1.580611,0.5898 0.458886,-0.12815 0.950845,-0.19154 1.43867,-0.19292 0.487828,0.001 0.979787,0.0648 1.438674,0.19292 1.096916,-0.74414 1.579231,-0.5898 1.579231,-0.5898 0.312815,0.79238 0.115757,1.37529 0.0565,1.52136 0.369312,0.40239 0.591178,0.91501 0.591178,1.54202 0,2.20762 -1.343586,2.69269 -2.623785,2.83601 0.206706,0.17638 0.389985,0.52778 0.389985,1.06384 0,0.76757 -0.0069,1.38769 -0.0069,1.57648 0,0.15296 0.103353,0.3321 0.395496,0.27698 2.280653,-0.76205 3.926034,-2.91455 3.926034,-5.4529 0,-3.17362 -2.572799,-5.74641 -5.746423,-5.74641"
       style="fill:#191714;fill-opacity:1;fill-rule:evenodd;stroke:none;stroke-width:0.35277778" />
  </g>
</svg>
