<?xml version="1.0" encoding="UTF-8" standalone="no"?>
<!-- Created with Inkscape (http://www.inkscape.org/) -->

<svg
   xmlns:dc="http://purl.org/dc/elements/1.1/"
   xmlns:cc="http://creativecommons.org/ns#"
   xmlns:rdf="http://www.w3.org/1999/02/22-rdf-syntax-ns#"
   xmlns:svg="http://www.w3.org/2000/svg"
   xmlns="http://www.w3.org/2000/svg"
   xmlns:xlink="http://www.w3.org/1999/xlink"
   xmlns:sodipodi="http://sodipodi.sourceforge.net/DTD/sodipodi-0.dtd"
   xmlns:inkscape="http://www.inkscape.org/namespaces/inkscape"
   width="40"
   height="40"
   viewBox="0 0 40 40"
   version="1.1"
   id="svg8"
   inkscape:version="0.92.4 (5da689c313, 2019-01-14)"
   sodipodi:docname="plugin.svg">
  <defs
     id="defs2">
    <linearGradient
       y2="13.807"
       x2="19.878"
       y1="29.803"
       x1="16.766"
       gradientUnits="userSpaceOnUse"
       id="0">
      <stop
         id="stop850"
         stop-color="#0052cc"
         offset=".15" />
      <stop
         id="stop852"
         stop-color="#0e64de"
         offset=".5" />
      <stop
         id="stop854"
         stop-color="#2684ff"
         offset="1" />
    </linearGradient>
    <linearGradient
       xlink:href="#0"
       y2="26.19"
       x2="20.12"
       y1="10.197"
       x1="23.23"
       gradientUnits="userSpaceOnUse"
       id="1" />
    <linearGradient
       inkscape:collect="always"
       xlink:href="#0"
       id="linearGradient879"
       gradientUnits="userSpaceOnUse"
       x1="16.766"
       y1="29.803"
       x2="19.878"
       y2="13.807" />
  </defs>
  <sodipodi:namedview
     id="base"
     pagecolor="#ffffff"
     bordercolor="#666666"
     borderopacity="1.0"
     inkscape:pageopacity="0.0"
     inkscape:pageshadow="2"
     inkscape:zoom="7.9195959"
     inkscape:cx="37.293532"
     inkscape:cy="8.9683303"
     inkscape:document-units="px"
     inkscape:current-layer="layer1"
     showgrid="false"
     units="px"
     showguides="true"
     inkscape:guide-bbox="true"
     inkscape:window-width="1600"
     inkscape:window-height="849"
     inkscape:window-x="0"
     inkscape:window-y="25"
     inkscape:window-maximized="1" />
  <metadata
     id="metadata5">
    <rdf:RDF>
      <cc:Work
         rdf:about="">
        <dc:format>image/svg+xml</dc:format>
        <dc:type
           rdf:resource="http://purl.org/dc/dcmitype/StillImage" />
        <dc:title></dc:title>
      </cc:Work>
    </rdf:RDF>
  </metadata>
  <g
     inkscape:label="Layer 1"
     inkscape:groupmode="layer"
     id="layer1"
     transform="translate(0,-286.41664)">
    <g
       id="g831"
       style="fill:none;fill-rule:evenodd"
       transform="matrix(0.09938178,0,0,0.09938178,4.706703,290.27026)">
      <path
         id="path815"
         d="M 59.682,31.392 56.332,21.132 49.705,0.78 c -0.34,-1.04 -1.821,-1.04 -2.173,0 L 40.905,21.119 H 18.885 L 12.258,0.78 c -0.34,-1.04 -1.821,-1.04 -2.173,0 L 3.469,21.119 0.119,31.391 c -0.303,0.932 0.025,1.96 0.826,2.541 L 29.896,54.9 58.847,33.932 c 0.801,-0.581 1.141,-1.609 0.837,-2.541"
         inkscape:connector-curvature="0"
         style="fill:#fc6d26" />
      <path
         id="path817"
         d="M 29.901,54.887 40.911,21.12 h -22.02 z"
         inkscape:connector-curvature="0"
         style="fill:#e24329" />
      <path
         id="path819"
         d="M 29.893,54.887 18.883,21.12 H 3.466 Z"
         inkscape:connector-curvature="0"
         style="fill:#fc6d26" />
      <path
         id="path821"
         d="m 3.462,21.13 -3.35,10.26 c -0.303,0.931 0.025,1.96 0.826,2.541 L 29.889,54.899 3.463,21.13"
         inkscape:connector-curvature="0"
         style="fill:#fca326" />
      <path
         id="path823"
         d="M 3.466,21.13 H 18.895 L 12.255,0.791 c -0.34,-1.041 -1.821,-1.041 -2.173,0 L 3.466,21.13"
         inkscape:connector-curvature="0"
         style="fill:#e24329" />
      <path
         id="path825"
         d="M 29.901,54.887 40.911,21.12 H 56.34 Z"
         inkscape:connector-curvature="0"
         style="fill:#fc6d26" />
      <path
         id="path827"
         d="m 56.33,21.13 3.35,10.26 c 0.303,0.931 -0.024,1.96 -0.826,2.541 L 29.903,54.887 56.329,21.13"
         inkscape:connector-curvature="0"
         style="fill:#fca326" />
      <path
         id="path829"
         d="M 56.34,21.13 H 40.912 L 47.539,0.791 c 0.34,-1.041 1.821,-1.041 2.173,0 L 56.34,21.13"
         inkscape:connector-curvature="0"
         style="fill:#e24329" />
    </g>
    <g
       id="g877"
       transform="matrix(0.12952999,0,0,0.12952999,5.087357,299.45104)">
      <path
         id="path860"
         d="M 0,0 C 0,7.5 6.1,13.6 13.7,13.6 H 26.4 V 26.3 H 40 V 2.2 C 40,1 39,0 37.8,0 Z"
         inkscape:connector-curvature="0"
         style="fill:url(#linearGradient879)" />
      <path
         id="path862"
         d="M 40,40 C 40,32.5 33.9,26.4 26.3,26.4 H 13.7 V 13.6 H 0 V 37.8 C 0,39 1,40 2.2,40 Z"
         inkscape:connector-curvature="0"
         style="fill:url(#1)" />
    </g>
    <g
       id="g882"
       transform="matrix(0.06287179,0,0,0.06287179,4.636574,309.01017)">
      <path
         style="fill:#4c4c4c"
         inkscape:connector-curvature="0"
         id="path2"
         d="M 0,66.00125 H 21 L 22.5,48 2.99875,43.50125 Z" />
      <path
         style="fill:#4c4c4c"
         inkscape:connector-curvature="0"
         id="path4"
         d="M 3.75,40.5 22.5,45 27,29.25 11.25,21.00125 Z" />
      <path
         style="fill:#4c4c4c"
         inkscape:connector-curvature="0"
         id="path6"
         d="m 12.74875,18 15,8.25 L 39.75,18 28.5,5.25 Z" />
      <path
         style="fill:#4c4c4c"
         inkscape:connector-curvature="0"
         id="path8"
         d="M 96.748747,66.00125 H 75.749997 L 74.248747,48 93.749997,43.50125 Z" />
      <path
         style="fill:#4c4c4c"
         inkscape:connector-curvature="0"
         id="path10"
         d="m 92.998747,40.5 -18.75,4.5 -4.49875,-15.75 15.74875,-8.24875 z" />
      <path
         style="fill:#4c4c4c"
         inkscape:connector-curvature="0"
         id="path12"
         d="m 83.998747,18 -15,8.25 -11.99875,-8.25 11.25,-12.75 z" />
      <path
         style="fill:#4c4c4c"
         inkscape:connector-curvature="0"
         id="path14"
         d="m 32.25,3 11.249997,13.5 h 10.49875 L 63.749997,3 53.998747,0 h -10.7625 z" />
      <path
         style="fill:#9c0000"
         inkscape:connector-curvature="0"
         id="path16"
         d="M 0,66.00125 H 21 L 22.5,48 2.99875,43.50125 Z" />
      <path
         style="fill:#b50808"
         inkscape:connector-curvature="0"
         id="path18"
         d="M 3.75,40.5 22.5,45 27,29.25 11.25,21.00125 Z" />
      <path
         style="fill:#c61818"
         inkscape:connector-curvature="0"
         id="path20"
         d="m 12.74875,18 15,8.25 L 39.75,18 28.5,5.25 Z" />
      <path
         style="fill:#9c0000"
         inkscape:connector-curvature="0"
         id="path22"
         d="M 96.748747,66.00125 H 75.749997 L 74.248747,48 93.749997,43.50125 Z" />
      <path
         style="fill:#b50808"
         inkscape:connector-curvature="0"
         id="path24"
         d="m 92.998747,40.5 -18.75,4.5 -4.49875,-15.75 15.74875,-8.24875 z" />
      <path
         style="fill:#c61818"
         inkscape:connector-curvature="0"
         id="path26"
         d="m 83.998747,18 -15,8.25 -11.99875,-8.25 11.25,-12.75 z" />
      <path
         style="fill:#ce3129"
         inkscape:connector-curvature="0"
         id="path28"
         d="m 32.25,3 11.249997,13.5 h 10.49875 L 63.749997,3 53.998747,0 h -10.7625 z" />
    </g>
    <g
       transform="matrix(0.46289821,0,0,0.46289821,25.524351,252.63336)"
       id="layer1-6"
       inkscape:label="Layer 1">
      <path
         style="fill:#191714;fill-opacity:1;fill-rule:evenodd;stroke:none;stroke-width:0.35277778"
         d="m -38.553586,140.20477 c -3.173621,0 -5.746418,2.57279 -5.746418,5.74641 0,2.53835 1.646756,4.69223 3.930166,5.4529 0.286632,0.0524 0.392741,-0.1254 0.392741,-0.27698 0,-0.13643 -0.0055,-0.49747 -0.0083,-0.97703 -1.598519,0.34726 -1.936138,-0.77033 -1.936138,-0.77033 -0.260449,-0.66421 -0.638031,-0.8406 -0.638031,-0.8406 -0.522277,-0.35691 0.03996,-0.35002 0.03996,-0.35002 0.576019,0.0413 0.879186,0.59256 0.879186,0.59256 0.512632,0.87781 1.346344,0.62425 1.672939,0.47817 0.05237,-0.37207 0.201193,-0.62562 0.365182,-0.76894 -1.276065,-0.1447 -2.618275,-0.63803 -2.618275,-2.84014 0,-0.62701 0.224621,-1.13963 0.592557,-1.54202 -0.05926,-0.14607 -0.256314,-0.72898 0.05512,-1.52136 0,0 0.48369,-0.15434 1.580611,0.5898 0.458886,-0.12815 0.950845,-0.19154 1.43867,-0.19292 0.487828,0.001 0.979787,0.0648 1.438674,0.19292 1.096916,-0.74414 1.579231,-0.5898 1.579231,-0.5898 0.312815,0.79238 0.115757,1.37529 0.0565,1.52136 0.369312,0.40239 0.591178,0.91501 0.591178,1.54202 0,2.20762 -1.343586,2.69269 -2.623785,2.83601 0.206706,0.17638 0.389985,0.52778 0.389985,1.06384 0,0.76757 -0.0069,1.38769 -0.0069,1.57648 0,0.15296 0.103353,0.3321 0.395496,0.27698 2.280653,-0.76205 3.926034,-2.91455 3.926034,-5.4529 0,-3.17362 -2.572799,-5.74641 -5.746423,-5.74641"
         id="path11"
         inkscape:connector-curvature="0" />
    </g>
    <g
       id="g1014"
       transform="matrix(0.03968482,0,0,0.03968482,16.093101,296.13615)">
      <path
         id="path946"
         d="M 388.41406,0 H 17.65625 C 12.972656,-0.0234375 8.480469,1.855469 5.207031,5.207031 1.855469,8.480469 -0.0234375,12.972656 0,17.65625 v 476.6875 C 0.03125,504.08203 7.917969,511.97266 17.65625,512 h 335.44922 c 9.73828,-0.0273 17.625,-7.91797 17.65234,-17.65625 V 70.621094 h 44.14063 c 4.875,0 8.82422,-3.953125 8.82422,-8.828125 V 35.3125 C 423.72266,15.808594 407.91406,0 388.41406,0 Z m 0,0"
         inkscape:connector-curvature="0"
         style="fill:#d1d4d1" />
      <path
         id="path948"
         d="m 423.72266,35.3125 v 26.480469 c 0,4.875 -3.94922,8.828125 -8.82422,8.828125 H 61.792969 c -4.875,0 -8.828125,-3.953125 -8.828125,-8.828125 V 35.3125 C 52.964844,15.808594 37.15625,0 17.65625,0 h 370.75781 c 19.5,0 35.3086,15.808594 35.3086,35.3125 z m 0,0"
         inkscape:connector-curvature="0"
         style="fill:#e6e7e8" />
      <path
         id="path950"
         d="M 370.75781,70.621094 V 494.34375 c -0.0273,9.73828 -7.91406,17.62891 -17.65234,17.65625 H 17.65625 C 7.917969,511.97266 0.03125,504.08203 0,494.34375 V 17.65625 C -0.0234375,12.972656 1.855469,8.480469 5.207031,5.207031 8.480469,1.855469 12.972656,-0.0234375 17.65625,0 c 19.5,0 35.308594,15.808594 35.308594,35.3125 v 26.480469 c 0,4.875 3.953125,8.828125 8.828125,8.828125 z m 0,0"
         inkscape:connector-curvature="0"
         style="fill:#d1d4d1" />
      <path
         id="path952"
         d="M 114.75781,211.86328 H 61.792969 c -9.75,0 -17.65625,-7.90625 -17.65625,-17.65625 v -52.96484 c 0,-9.75 7.90625,-17.65625 17.65625,-17.65625 h 26.484375 c 4.875,0 8.828125,3.95312 8.828125,8.82812 0,4.875 -3.953125,8.82813 -8.828125,8.82813 H 61.792969 v 52.96484 h 52.964841 v -8.82812 c 0,-4.875 3.95313,-8.82813 8.82813,-8.82813 4.875,0 8.82812,3.95313 8.82812,8.82813 v 8.82812 c 0,9.75 -7.90625,17.65625 -17.65625,17.65625 z m 0,0"
         inkscape:connector-curvature="0"
         style="fill:#a5a5a4" />
      <path
         id="path954"
         d="M 114.75781,335.44922 H 61.792969 c -9.75,0 -17.65625,-7.90625 -17.65625,-17.65625 v -52.96485 c 0,-9.75 7.90625,-17.65625 17.65625,-17.65625 h 52.964841 c 9.75,0 17.65625,7.90625 17.65625,17.65625 v 52.96485 c 0,9.75 -7.90625,17.65625 -17.65625,17.65625 z m -52.964841,-70.6211 v 52.96485 h 52.964841 v -52.96485 z m 0,0"
         inkscape:connector-curvature="0"
         style="fill:#a5a5a4" />
      <path
         id="path956"
         d="M 114.75781,459.03516 H 61.792969 c -9.75,0 -17.65625,-7.90625 -17.65625,-17.65625 v -52.96485 c 0,-9.75 7.90625,-17.65625 17.65625,-17.65625 h 52.964841 c 9.75,0 17.65625,7.90625 17.65625,17.65625 v 52.96485 c 0,9.75 -7.90625,17.65625 -17.65625,17.65625 z m -52.964841,-70.6211 v 52.96485 h 52.964841 v -52.96485 z m 0,0"
         inkscape:connector-curvature="0"
         style="fill:#a5a5a4" />
      <g
         id="g982"
         style="fill:#5e5f62">
        <path
           id="path958"
           d="m 211.86328,158.89844 h -44.14062 c -4.875,0 -8.82422,-3.95313 -8.82422,-8.82813 0,-4.875 3.94922,-8.82812 8.82422,-8.82812 h 44.14062 c 4.875,0 8.82813,3.95312 8.82813,8.82812 0,4.875 -3.95313,8.82813 -8.82813,8.82813 z m 0,0"
           inkscape:connector-curvature="0" />
        <path
           id="path960"
           d="m 335.44922,158.89844 h -88.27734 c -4.875,0 -8.82813,-3.95313 -8.82813,-8.82813 0,-4.875 3.95313,-8.82812 8.82813,-8.82812 h 88.27734 c 4.875,0 8.82812,3.95312 8.82812,8.82812 0,4.875 -3.95312,8.82813 -8.82812,8.82813 z m 0,0"
           inkscape:connector-curvature="0" />
        <path
           id="path962"
           d="m 256,194.20703 h -88.27734 c -4.875,0 -8.82422,-3.95312 -8.82422,-8.82812 0,-4.875 3.94922,-8.82813 8.82422,-8.82813 H 256 c 4.875,0 8.82812,3.95313 8.82812,8.82813 0,4.875 -3.95312,8.82812 -8.82812,8.82812 z m 0,0"
           inkscape:connector-curvature="0" />
        <path
           id="path964"
           d="M 335.44922,194.20703 H 291.3125 c -4.87891,0 -8.82813,-3.95312 -8.82813,-8.82812 0,-4.875 3.94922,-8.82813 8.82813,-8.82813 h 44.13672 c 4.875,0 8.82812,3.95313 8.82812,8.82813 0,4.875 -3.95312,8.82812 -8.82812,8.82812 z m 0,0"
           inkscape:connector-curvature="0" />
        <path
           id="path966"
           d="m 211.86328,282.48437 h -44.14062 c -4.875,0 -8.82422,-3.95312 -8.82422,-8.82812 0,-4.875 3.94922,-8.82813 8.82422,-8.82813 h 44.14062 c 4.875,0 8.82813,3.95313 8.82813,8.82813 0,4.875 -3.95313,8.82812 -8.82813,8.82812 z m 0,0"
           inkscape:connector-curvature="0" />
        <path
           id="path968"
           d="m 335.44922,282.48437 h -88.27734 c -4.875,0 -8.82813,-3.95312 -8.82813,-8.82812 0,-4.875 3.95313,-8.82813 8.82813,-8.82813 h 88.27734 c 4.875,0 8.82812,3.95313 8.82812,8.82813 0,4.875 -3.95312,8.82812 -8.82812,8.82812 z m 0,0"
           inkscape:connector-curvature="0" />
        <path
           id="path970"
           d="m 256,317.79297 h -88.27734 c -4.875,0 -8.82422,-3.95313 -8.82422,-8.82813 0,-4.875 3.94922,-8.82812 8.82422,-8.82812 H 256 c 4.875,0 8.82812,3.95312 8.82812,8.82812 0,4.875 -3.95312,8.82813 -8.82812,8.82813 z m 0,0"
           inkscape:connector-curvature="0" />
        <path
           id="path972"
           d="M 335.44922,317.79297 H 291.3125 c -4.87891,0 -8.82813,-3.95313 -8.82813,-8.82813 0,-4.875 3.94922,-8.82812 8.82813,-8.82812 h 44.13672 c 4.875,0 8.82812,3.95312 8.82812,8.82812 0,4.875 -3.95312,8.82813 -8.82812,8.82813 z m 0,0"
           inkscape:connector-curvature="0" />
        <path
           id="path974"
           d="m 211.86328,406.07031 h -44.14062 c -4.875,0 -8.82422,-3.95312 -8.82422,-8.82812 0,-4.875 3.94922,-8.82813 8.82422,-8.82813 h 44.14062 c 4.875,0 8.82813,3.95313 8.82813,8.82813 0,4.875 -3.95313,8.82812 -8.82813,8.82812 z m 0,0"
           inkscape:connector-curvature="0" />
        <path
           id="path976"
           d="m 335.44922,406.07031 h -88.27734 c -4.875,0 -8.82813,-3.95312 -8.82813,-8.82812 0,-4.875 3.95313,-8.82813 8.82813,-8.82813 h 88.27734 c 4.875,0 8.82812,3.95313 8.82812,8.82813 0,4.875 -3.95312,8.82812 -8.82812,8.82812 z m 0,0"
           inkscape:connector-curvature="0" />
        <path
           id="path978"
           d="m 256,441.37891 h -88.27734 c -4.875,0 -8.82422,-3.95313 -8.82422,-8.82813 0,-4.875 3.94922,-8.82812 8.82422,-8.82812 H 256 c 4.875,0 8.82812,3.95312 8.82812,8.82812 0,4.875 -3.95312,8.82813 -8.82812,8.82813 z m 0,0"
           inkscape:connector-curvature="0" />
        <path
           id="path980"
           d="M 335.44922,441.37891 H 291.3125 c -4.87891,0 -8.82813,-3.95313 -8.82813,-8.82813 0,-4.875 3.94922,-8.82812 8.82813,-8.82812 h 44.13672 c 4.875,0 8.82812,3.95312 8.82812,8.82812 0,4.875 -3.95312,8.82813 -8.82812,8.82813 z m 0,0"
           inkscape:connector-curvature="0" />
      </g>
      <path
         id="path984"
         d="m 97.105469,185.37891 c -2.34375,0 -4.585938,-0.92969 -6.242188,-2.58594 l -17.65625,-17.65625 c -3.34375,-3.46094 -3.296875,-8.96875 0.109375,-12.375 3.402344,-3.40235 8.910156,-3.45313 12.375,-0.10547 l 10.292969,10.28516 38.070315,-53.3125 c 1.83203,-2.56641 4.89843,-3.96094 8.03515,-3.65625 3.14063,0.30078 5.87891,2.25781 7.1875,5.1289 1.30469,2.8711 0.98047,6.21875 -0.85156,8.78516 l -44.13672,61.79297 c -1.50781,2.11328 -3.86718,3.45703 -6.453122,3.67187 z m 0,0"
         inkscape:connector-curvature="0"
         style="fill:#24ae5f" />
    </g>
  </g>
</svg>
