<?xml version="1.0" encoding="UTF-8" standalone="no"?>
<svg
   xmlns:dc="http://purl.org/dc/elements/1.1/"
   xmlns:cc="http://creativecommons.org/ns#"
   xmlns:rdf="http://www.w3.org/1999/02/22-rdf-syntax-ns#"
   xmlns:svg="http://www.w3.org/2000/svg"
   xmlns="http://www.w3.org/2000/svg"
   xmlns:sodipodi="http://sodipodi.sourceforge.net/DTD/sodipodi-0.dtd"
   xmlns:inkscape="http://www.inkscape.org/namespaces/inkscape"
   width="96.748749"
   height="66.001251"
   version="1.1"
   id="svg38"
   sodipodi:docname="redmine_logo.svg"
   inkscape:version="0.92.4 (5da689c313, 2019-01-14)">
  <metadata
     id="metadata44">
    <rdf:RDF>
      <cc:Work
         rdf:about="">
        <dc:format>image/svg+xml</dc:format>
        <dc:type
           rdf:resource="http://purl.org/dc/dcmitype/StillImage" />
      </cc:Work>
    </rdf:RDF>
  </metadata>
  <defs
     id="defs42" />
  <sodipodi:namedview
     pagecolor="#ffffff"
     bordercolor="#666666"
     borderopacity="1"
     objecttolerance="10"
     gridtolerance="10"
     guidetolerance="10"
     inkscape:pageopacity="0"
     inkscape:pageshadow="2"
     inkscape:window-width="1380"
     inkscape:window-height="705"
     id="namedview40"
     showgrid="false"
     inkscape:zoom="0.87287525"
     inkscape:cx="300.74526"
     inkscape:cy="12.329154"
     inkscape:window-x="0"
     inkscape:window-y="25"
     inkscape:window-maximized="0"
     inkscape:current-layer="svg38" />
  <g
     id="g882">
    <path
       d="M 0,66.00125 H 21 L 22.5,48 2.99875,43.50125 Z"
       id="path2"
       inkscape:connector-curvature="0"
       style="fill:#4c4c4c" />
    <path
       d="M 3.75,40.5 22.5,45 27,29.25 11.25,21.00125 Z"
       id="path4"
       inkscape:connector-curvature="0"
       style="fill:#4c4c4c" />
    <path
       d="m 12.74875,18 15,8.25 L 39.75,18 28.5,5.25 Z"
       id="path6"
       inkscape:connector-curvature="0"
       style="fill:#4c4c4c" />
    <path
       d="M 96.748747,66.00125 H 75.749997 L 74.248747,48 93.749997,43.50125 Z"
       id="path8"
       inkscape:connector-curvature="0"
       style="fill:#4c4c4c" />
    <path
       d="m 92.998747,40.5 -18.75,4.5 -4.49875,-15.75 15.74875,-8.24875 z"
       id="path10"
       inkscape:connector-curvature="0"
       style="fill:#4c4c4c" />
    <path
       d="m 83.998747,18 -15,8.25 -11.99875,-8.25 11.25,-12.75 z"
       id="path12"
       inkscape:connector-curvature="0"
       style="fill:#4c4c4c" />
    <path
       d="m 32.25,3 11.249997,13.5 h 10.49875 L 63.749997,3 53.998747,0 h -10.7625 z"
       id="path14"
       inkscape:connector-curvature="0"
       style="fill:#4c4c4c" />
    <path
       d="M 0,66.00125 H 21 L 22.5,48 2.99875,43.50125 Z"
       id="path16"
       inkscape:connector-curvature="0"
       style="fill:#9c0000" />
    <path
       d="M 3.75,40.5 22.5,45 27,29.25 11.25,21.00125 Z"
       id="path18"
       inkscape:connector-curvature="0"
       style="fill:#b50808" />
    <path
       d="m 12.74875,18 15,8.25 L 39.75,18 28.5,5.25 Z"
       id="path20"
       inkscape:connector-curvature="0"
       style="fill:#c61818" />
    <path
       d="M 96.748747,66.00125 H 75.749997 L 74.248747,48 93.749997,43.50125 Z"
       id="path22"
       inkscape:connector-curvature="0"
       style="fill:#9c0000" />
    <path
       d="m 92.998747,40.5 -18.75,4.5 -4.49875,-15.75 15.74875,-8.24875 z"
       id="path24"
       inkscape:connector-curvature="0"
       style="fill:#b50808" />
    <path
       d="m 83.998747,18 -15,8.25 -11.99875,-8.25 11.25,-12.75 z"
       id="path26"
       inkscape:connector-curvature="0"
       style="fill:#c61818" />
    <path
       d="m 32.25,3 11.249997,13.5 h 10.49875 L 63.749997,3 53.998747,0 h -10.7625 z"
       id="path28"
       inkscape:connector-curvature="0"
       style="fill:#ce3129" />
  </g>
</svg>
